<mxfile host="Electron" modified="2024-05-04T16:17:35.524Z" agent="Mozilla/5.0 (Windows NT 10.0; Win64; x64) AppleWebKit/537.36 (KHTML, like Gecko) draw.io/24.2.5 Chrome/120.0.6099.109 Electron/28.1.0 Safari/537.36" etag="Nh6IK8EdFQD4cIPuzrfu" version="24.2.5" type="device">
  <diagram name="Page-1" id="Yp4euS2os_xdrvkF56eh">
    <mxGraphModel dx="1024" dy="597" grid="1" gridSize="10" guides="1" tooltips="1" connect="1" arrows="1" fold="1" page="0" pageScale="1" pageWidth="827" pageHeight="1169" math="0" shadow="0">
      <root>
        <mxCell id="0" />
        <mxCell id="1" parent="0" />
        <mxCell id="-V4dGTR92aRdaOaunBdz-1" value="Item" style="whiteSpace=wrap;html=1;" vertex="1" parent="1">
          <mxGeometry x="240" y="360" width="120" height="60" as="geometry" />
        </mxCell>
        <mxCell id="-V4dGTR92aRdaOaunBdz-6" style="edgeStyle=orthogonalEdgeStyle;rounded=0;orthogonalLoop=1;jettySize=auto;html=1;exitX=0.5;exitY=0;exitDx=0;exitDy=0;endArrow=block;endFill=0;" edge="1" parent="1" source="-V4dGTR92aRdaOaunBdz-2" target="-V4dGTR92aRdaOaunBdz-1">
          <mxGeometry relative="1" as="geometry" />
        </mxCell>
        <mxCell id="-V4dGTR92aRdaOaunBdz-2" value="Moving Item" style="whiteSpace=wrap;html=1;" vertex="1" parent="1">
          <mxGeometry x="480" y="460" width="120" height="60" as="geometry" />
        </mxCell>
        <mxCell id="-V4dGTR92aRdaOaunBdz-24" style="edgeStyle=orthogonalEdgeStyle;rounded=0;orthogonalLoop=1;jettySize=auto;html=1;exitX=0.5;exitY=0;exitDx=0;exitDy=0;entryX=0.5;entryY=1;entryDx=0;entryDy=0;endArrow=block;endFill=0;" edge="1" parent="1" source="-V4dGTR92aRdaOaunBdz-3" target="-V4dGTR92aRdaOaunBdz-1">
          <mxGeometry relative="1" as="geometry" />
        </mxCell>
        <mxCell id="-V4dGTR92aRdaOaunBdz-3" value="Steady Item" style="whiteSpace=wrap;html=1;" vertex="1" parent="1">
          <mxGeometry y="460" width="120" height="60" as="geometry" />
        </mxCell>
        <mxCell id="-V4dGTR92aRdaOaunBdz-23" style="edgeStyle=orthogonalEdgeStyle;rounded=0;orthogonalLoop=1;jettySize=auto;html=1;endArrow=block;endFill=0;" edge="1" parent="1" source="-V4dGTR92aRdaOaunBdz-4" target="-V4dGTR92aRdaOaunBdz-19">
          <mxGeometry relative="1" as="geometry" />
        </mxCell>
        <mxCell id="-V4dGTR92aRdaOaunBdz-4" value="Match Item" style="whiteSpace=wrap;html=1;" vertex="1" parent="1">
          <mxGeometry x="480" y="660" width="120" height="60" as="geometry" />
        </mxCell>
        <mxCell id="-V4dGTR92aRdaOaunBdz-21" style="edgeStyle=orthogonalEdgeStyle;rounded=0;orthogonalLoop=1;jettySize=auto;html=1;endArrow=block;endFill=0;" edge="1" parent="1" source="-V4dGTR92aRdaOaunBdz-5" target="-V4dGTR92aRdaOaunBdz-19">
          <mxGeometry relative="1" as="geometry" />
        </mxCell>
        <mxCell id="-V4dGTR92aRdaOaunBdz-5" value="Power Up Item" style="whiteSpace=wrap;html=1;" vertex="1" parent="1">
          <mxGeometry x="640" y="660" width="120" height="60" as="geometry" />
        </mxCell>
        <mxCell id="-V4dGTR92aRdaOaunBdz-18" style="edgeStyle=orthogonalEdgeStyle;rounded=0;orthogonalLoop=1;jettySize=auto;html=1;exitX=0.5;exitY=0;exitDx=0;exitDy=0;entryX=0.5;entryY=1;entryDx=0;entryDy=0;endArrow=block;endFill=0;" edge="1" parent="1" source="-V4dGTR92aRdaOaunBdz-9" target="-V4dGTR92aRdaOaunBdz-5">
          <mxGeometry relative="1" as="geometry" />
        </mxCell>
        <mxCell id="-V4dGTR92aRdaOaunBdz-9" value="Light Ball" style="whiteSpace=wrap;html=1;" vertex="1" parent="1">
          <mxGeometry x="430" y="760" width="120" height="60" as="geometry" />
        </mxCell>
        <mxCell id="-V4dGTR92aRdaOaunBdz-15" style="edgeStyle=orthogonalEdgeStyle;rounded=0;orthogonalLoop=1;jettySize=auto;html=1;exitX=0.5;exitY=0;exitDx=0;exitDy=0;entryX=0.5;entryY=1;entryDx=0;entryDy=0;endArrow=block;endFill=0;" edge="1" parent="1" source="-V4dGTR92aRdaOaunBdz-10" target="-V4dGTR92aRdaOaunBdz-5">
          <mxGeometry relative="1" as="geometry" />
        </mxCell>
        <mxCell id="-V4dGTR92aRdaOaunBdz-10" value="Propeller" style="whiteSpace=wrap;html=1;" vertex="1" parent="1">
          <mxGeometry x="570" y="760" width="120" height="60" as="geometry" />
        </mxCell>
        <mxCell id="-V4dGTR92aRdaOaunBdz-16" style="edgeStyle=orthogonalEdgeStyle;rounded=0;orthogonalLoop=1;jettySize=auto;html=1;exitX=0.5;exitY=0;exitDx=0;exitDy=0;endArrow=block;endFill=0;" edge="1" parent="1" source="-V4dGTR92aRdaOaunBdz-11">
          <mxGeometry relative="1" as="geometry">
            <mxPoint x="700" y="720" as="targetPoint" />
          </mxGeometry>
        </mxCell>
        <mxCell id="-V4dGTR92aRdaOaunBdz-11" value="Rocket" style="whiteSpace=wrap;html=1;" vertex="1" parent="1">
          <mxGeometry x="710" y="760" width="120" height="60" as="geometry" />
        </mxCell>
        <mxCell id="-V4dGTR92aRdaOaunBdz-17" style="edgeStyle=orthogonalEdgeStyle;rounded=0;orthogonalLoop=1;jettySize=auto;html=1;exitX=0.5;exitY=0;exitDx=0;exitDy=0;entryX=0.5;entryY=1;entryDx=0;entryDy=0;endArrow=block;endFill=0;" edge="1" parent="1" source="-V4dGTR92aRdaOaunBdz-12" target="-V4dGTR92aRdaOaunBdz-5">
          <mxGeometry relative="1" as="geometry" />
        </mxCell>
        <mxCell id="-V4dGTR92aRdaOaunBdz-12" value="Tnt" style="whiteSpace=wrap;html=1;" vertex="1" parent="1">
          <mxGeometry x="850" y="760" width="120" height="60" as="geometry" />
        </mxCell>
        <mxCell id="-V4dGTR92aRdaOaunBdz-20" style="edgeStyle=orthogonalEdgeStyle;rounded=0;orthogonalLoop=1;jettySize=auto;html=1;endArrow=block;endFill=0;" edge="1" parent="1" source="-V4dGTR92aRdaOaunBdz-19" target="-V4dGTR92aRdaOaunBdz-2">
          <mxGeometry relative="1" as="geometry" />
        </mxCell>
        <mxCell id="-V4dGTR92aRdaOaunBdz-19" value="Interactive Slidable Item" style="whiteSpace=wrap;html=1;" vertex="1" parent="1">
          <mxGeometry x="560" y="560" width="120" height="60" as="geometry" />
        </mxCell>
      </root>
    </mxGraphModel>
  </diagram>
</mxfile>
